<svg width="150" height="24" viewBox="0 0 150 24" fill="none" xmlns="http://www.w3.org/2000/svg">
<g clip-path="url(#clip0_2_378)">
<path d="M64.7023 20.5288H60.2455C56.6067 20.5288 56.2133 17.3252 56.2133 16.5365V3.44731C56.2133 1.54199 54.6577 0 52.7355 0V17.1258C52.7355 21.8625 56.8615 23.9717 59.718 23.9717H68.1802C68.1802 22.0663 66.6245 20.5244 64.7023 20.5244V20.5288Z" fill="#1D1F2A"/>
<path d="M3.47785 3.44731H11.3589C10.7152 4.51075 10.3441 5.76029 10.3441 7.09402V23.9761C12.2663 23.9761 13.822 22.4341 13.822 20.5288V6.99654C13.822 5.03804 15.4223 3.44731 17.4027 3.44731H21.6807C23.6029 3.44731 25.1585 1.90533 25.1585 0H0C0 1.90533 1.55564 3.44731 3.47785 3.44731Z" fill="#1D1F2A"/>
<path d="M68.1801 0C68.1801 1.90533 69.7358 3.44731 71.658 3.44731H79.539C78.8953 4.51075 78.5243 5.76029 78.5243 7.09402V23.9761C80.4465 23.9761 82.0021 22.4341 82.0021 20.5288V6.99654C82.0021 5.03804 83.6025 3.44731 85.5828 3.44731H89.8608C91.783 3.44731 93.3386 1.90533 93.3386 0H68.1846L68.1801 0Z" fill="#1D1F2A"/>
<path d="M40.0176 0H35.6055C30.6658 0 26.665 3.96574 26.665 8.86199V15.1141C26.665 20.0104 30.6658 23.9761 35.6055 23.9761H40.0176C44.9572 23.9761 48.9581 20.0104 48.9581 15.1141V8.86199C48.9581 3.96574 44.9572 0 40.0176 0ZM45.5249 13.6386C45.5249 17.3075 42.5209 20.2851 38.8196 20.2851H36.8035C33.1021 20.2851 30.0981 17.3075 30.0981 13.6386V10.3375C30.0981 6.66864 33.1021 3.69102 36.8035 3.69102H38.8196C42.5209 3.69102 45.5249 6.66864 45.5249 10.3375V13.6386Z" fill="#1D1F2A"/>
</g>
<path d="M115.715 7.12517H119.663V7.76701H118.03V12.4386H117.339V7.76701H115.715V7.12517Z" fill="#485867"/>
<path d="M122.831 10.1069C122.831 9.81982 122.744 9.58963 122.571 9.4163C122.403 9.23756 122.181 9.14819 121.905 9.14819C121.623 9.14819 121.39 9.24027 121.206 9.42443C121.022 9.60317 120.93 9.83607 120.93 10.1231H120.816C120.816 9.67358 120.944 9.30256 121.198 9.01007C121.453 8.71217 121.783 8.56322 122.189 8.56322C122.563 8.56322 122.877 8.70405 123.131 8.9857C123.391 9.26193 123.521 9.60588 123.521 10.0175V12.4386H122.831V10.1069ZM120.93 8.70134L120.727 9.69254L120.93 9.75753V12.4386H120.256V6.85706H120.93V8.70134Z" fill="#485867"/>
<path d="M124.822 10.7487C124.855 11.1387 124.971 11.442 125.172 11.6587C125.377 11.8699 125.656 11.9755 126.008 11.9755C126.29 11.9755 126.523 11.9024 126.707 11.7562C126.896 11.6099 127.018 11.4095 127.072 11.155L127.722 11.2687C127.63 11.6804 127.43 12.0026 127.121 12.2355C126.818 12.463 126.447 12.5768 126.008 12.5768C125.423 12.5768 124.963 12.398 124.627 12.0405C124.297 11.6776 124.132 11.182 124.132 10.5537C124.132 9.93086 124.292 9.44068 124.611 9.08319C124.931 8.72571 125.366 8.54697 125.919 8.54697C126.482 8.54697 126.923 8.72842 127.243 9.09132C127.562 9.4488 127.722 9.92003 127.722 10.505V10.7487H124.822ZM124.838 10.245H127.032C127.032 9.92544 126.926 9.66275 126.715 9.45692C126.504 9.24569 126.238 9.14007 125.919 9.14007C125.616 9.14007 125.369 9.23756 125.18 9.43255C124.996 9.62212 124.882 9.89294 124.838 10.245Z" fill="#485867"/>
<path d="M131.019 8.19761C130.753 8.57676 130.621 9.10486 130.621 9.78191C130.621 10.459 130.753 10.9843 131.019 11.3581C131.29 11.7318 131.663 11.9187 132.14 11.9187C132.616 11.9187 132.987 11.7318 133.253 11.3581C133.518 10.9843 133.651 10.459 133.651 9.78191C133.651 9.10486 133.515 8.57676 133.244 8.19761C132.979 7.81305 132.608 7.62077 132.132 7.62077C131.66 7.62077 131.29 7.81305 131.019 8.19761ZM129.938 9.78191C129.938 8.90445 130.136 8.21657 130.531 7.71826C130.932 7.21995 131.468 6.9708 132.14 6.9708C132.768 6.9708 133.29 7.22537 133.707 7.73451C134.124 8.23824 134.333 8.9207 134.333 9.78191C134.333 10.6648 134.135 11.3527 133.74 11.8456C133.345 12.333 132.809 12.5768 132.132 12.5768C131.46 12.5768 130.927 12.3303 130.531 11.8374C130.136 11.3445 129.938 10.6594 129.938 9.78191Z" fill="#485867"/>
<path d="M135.613 10.5781C135.613 11.0331 135.713 11.3852 135.914 11.6343C136.119 11.8781 136.401 11.9999 136.758 11.9999C137.116 11.9999 137.392 11.8781 137.587 11.6343C137.787 11.3852 137.888 11.0331 137.888 10.5781C137.888 10.1231 137.787 9.77378 137.587 9.53005C137.392 9.28631 137.116 9.16444 136.758 9.16444C136.401 9.16444 136.119 9.28631 135.914 9.53005C135.713 9.77378 135.613 10.1231 135.613 10.5781ZM135.434 10.5781C135.434 9.93357 135.567 9.43797 135.832 9.09132C136.103 8.73925 136.477 8.56322 136.953 8.56322C137.435 8.56322 137.825 8.74196 138.123 9.09944C138.421 9.45151 138.57 9.93628 138.57 10.5537C138.57 11.1929 138.41 11.6939 138.091 12.0568C137.777 12.4143 137.384 12.593 136.913 12.593C136.453 12.593 136.09 12.4197 135.824 12.073C135.564 11.721 135.434 11.2227 135.434 10.5781ZM134.939 14.0229V8.70134H135.613L135.402 9.68441L135.613 9.75753V11.3825L135.394 11.4556L135.613 12.4386V14.0229H134.939Z" fill="#485867"/>
<path d="M139.743 10.7487C139.776 11.1387 139.892 11.442 140.093 11.6587C140.298 11.8699 140.577 11.9755 140.929 11.9755C141.211 11.9755 141.444 11.9024 141.628 11.7562C141.817 11.6099 141.939 11.4095 141.993 11.155L142.643 11.2687C142.551 11.6804 142.351 12.0026 142.042 12.2355C141.739 12.463 141.368 12.5768 140.929 12.5768C140.344 12.5768 139.884 12.398 139.548 12.0405C139.218 11.6776 139.053 11.182 139.053 10.5537C139.053 9.93086 139.213 9.44068 139.532 9.08319C139.852 8.72571 140.288 8.54697 140.84 8.54697C141.403 8.54697 141.844 8.72842 142.164 9.09132C142.483 9.4488 142.643 9.92003 142.643 10.505V10.7487H139.743ZM139.76 10.245H141.953C141.953 9.92544 141.847 9.66275 141.636 9.45692C141.425 9.24569 141.159 9.14007 140.84 9.14007C140.537 9.14007 140.29 9.23756 140.101 9.43255C139.917 9.62212 139.803 9.89294 139.76 10.245Z" fill="#485867"/>
<path d="M145.827 10.1069C145.827 9.81982 145.741 9.58963 145.567 9.4163C145.399 9.23756 145.177 9.14819 144.901 9.14819C144.62 9.14819 144.387 9.24027 144.203 9.42443C144.019 9.60317 143.926 9.83607 143.926 10.1231H143.813C143.813 9.67358 143.94 9.30256 144.195 9.01007C144.449 8.71217 144.779 8.56322 145.186 8.56322C145.559 8.56322 145.873 8.70405 146.128 8.9857C146.388 9.26193 146.518 9.60588 146.518 10.0175V12.4386H145.827V10.1069ZM143.252 8.70134H143.926L143.715 9.69254L143.926 9.75753V12.4386H143.252V8.70134Z" fill="#485867"/>
<path d="M115.869 16.8747H116.543V21.5382H119.524V22.1882H115.869V16.8747Z" fill="#485867"/>
<path d="M120.666 20.4982C120.698 20.8882 120.814 21.1915 121.015 21.4082C121.221 21.6194 121.5 21.7251 121.852 21.7251C122.133 21.7251 122.366 21.6519 122.55 21.5057C122.74 21.3594 122.861 21.159 122.916 20.9045L123.565 21.0182C123.473 21.4299 123.273 21.7521 122.964 21.985C122.661 22.2125 122.29 22.3263 121.852 22.3263C121.267 22.3263 120.806 22.1475 120.471 21.7901C120.14 21.4272 119.975 20.9316 119.975 20.3033C119.975 19.6804 120.135 19.1902 120.454 18.8327C120.774 18.4752 121.21 18.2965 121.762 18.2965C122.325 18.2965 122.767 18.4779 123.086 18.8408C123.406 19.1983 123.565 19.6695 123.565 20.2545V20.4982H120.666ZM120.682 19.9945H122.875C122.875 19.6749 122.769 19.4123 122.558 19.2064C122.347 18.9952 122.082 18.8896 121.762 18.8896C121.459 18.8896 121.213 18.9871 121.023 19.1821C120.839 19.3716 120.725 19.6425 120.682 19.9945Z" fill="#485867"/>
<path d="M124.069 19.637C124.069 19.2308 124.204 18.9058 124.475 18.6621C124.751 18.4183 125.122 18.2965 125.588 18.2965C126.075 18.2965 126.465 18.4292 126.758 18.6946C127.055 18.9546 127.204 19.3012 127.204 19.7345C127.204 20.1299 127.077 20.4522 126.823 20.7014C126.568 20.9505 126.235 21.0751 125.823 21.0751C125.748 21.0426 125.536 21.0182 125.19 21.002V20.8557C124.838 20.8341 124.562 20.7149 124.361 20.4982C124.166 20.2762 124.069 19.9891 124.069 19.637ZM124.751 19.6858C124.751 19.9512 124.83 20.157 124.987 20.3033C125.144 20.4495 125.36 20.5226 125.637 20.5226C125.918 20.5226 126.138 20.4495 126.295 20.3033C126.452 20.157 126.53 19.9512 126.53 19.6858C126.53 19.4258 126.452 19.2254 126.295 19.0846C126.143 18.9437 125.924 18.8733 125.637 18.8733C125.355 18.8733 125.136 18.9437 124.979 19.0846C124.827 19.2254 124.751 19.4258 124.751 19.6858ZM126.798 18.1421C126.609 18.1421 126.514 18.2125 126.514 18.3534C126.514 18.4183 126.573 18.5158 126.693 18.6458L126.278 18.5077L126.368 18.3371C126.216 18.2396 126.14 18.1232 126.14 17.9877C126.14 17.8632 126.194 17.7657 126.303 17.6953C126.416 17.6248 126.573 17.5896 126.774 17.5896H127.448V18.1421H126.798ZM123.939 22.9356C123.939 22.6594 124.053 22.44 124.28 22.2775C124.513 22.115 124.824 22.0338 125.214 22.0338V21.9363C124.64 21.828 124.353 21.6411 124.353 21.3757C124.353 21.224 124.453 21.113 124.654 21.0426C124.86 20.9722 125.187 20.937 125.637 20.937L125.823 21.0751C125.547 21.0751 125.35 21.0859 125.23 21.1076C125.117 21.1293 125.06 21.1672 125.06 21.2213C125.06 21.3297 125.293 21.4434 125.758 21.5626C126.338 21.7034 126.747 21.874 126.985 22.0744C127.223 22.2694 127.342 22.5158 127.342 22.8138C127.342 23.1821 127.191 23.4718 126.888 23.6831C126.584 23.8943 126.17 23.9999 125.645 23.9999C125.119 23.9999 124.702 23.9024 124.394 23.7075C124.091 23.5179 123.939 23.2606 123.939 22.9356ZM124.613 22.7731C124.613 22.9627 124.705 23.1117 124.889 23.22C125.073 23.3337 125.328 23.3906 125.653 23.3906C125.972 23.3906 126.219 23.3364 126.392 23.2281C126.571 23.1198 126.66 22.9708 126.66 22.7813C126.66 22.6404 126.601 22.5267 126.481 22.44C126.368 22.3588 126.116 22.2532 125.726 22.1232C125.385 22.1232 125.114 22.18 124.914 22.2938C124.713 22.4129 124.613 22.5727 124.613 22.7731Z" fill="#485867"/>
<path d="M128.376 21.2051C128.376 21.373 128.446 21.5003 128.587 21.5869C128.733 21.6736 128.923 21.7169 129.156 21.7169C129.475 21.7169 129.732 21.6276 129.927 21.4488C130.128 21.2701 130.228 21.0426 130.228 20.7664H130.358C130.358 21.2376 130.228 21.6167 129.968 21.9038C129.708 22.1854 129.367 22.3263 128.944 22.3263C128.582 22.3263 128.281 22.2288 128.043 22.0338C127.81 21.8334 127.693 21.5788 127.693 21.2701C127.693 20.9993 127.775 20.7853 127.937 20.6282C128.105 20.4657 128.362 20.3358 128.709 20.2383L130.228 19.8564V20.3682L128.944 20.6689C128.565 20.7609 128.376 20.9397 128.376 21.2051ZM130.91 22.1882H130.228L130.447 21.2213L130.228 21.132V19.7183C130.228 19.48 130.144 19.2877 129.976 19.1414C129.814 18.9952 129.597 18.9221 129.326 18.9221C129.055 18.9221 128.833 19.0033 128.66 19.1658C128.492 19.3229 128.392 19.5287 128.36 19.7833L127.693 19.6695C127.753 19.2741 127.929 18.9492 128.221 18.6946C128.514 18.44 128.888 18.3127 129.342 18.3127C129.803 18.3127 130.179 18.44 130.472 18.6946C130.764 18.9492 130.91 19.2606 130.91 19.6289V22.1882Z" fill="#485867"/>
<path d="M131.647 16.6066H132.321V22.1882H131.647V16.6066Z" fill="#485867"/>
<path d="M134.642 16.8747H138.59V17.5165H136.957V22.1882H136.266V17.5165H134.642V16.8747Z" fill="#485867"/>
<path d="M139.172 20.4982C139.205 20.8882 139.321 21.1915 139.521 21.4082C139.727 21.6194 140.006 21.7251 140.358 21.7251C140.64 21.7251 140.873 21.6519 141.057 21.5057C141.246 21.3594 141.368 21.159 141.422 20.9045L142.072 21.0182C141.98 21.4299 141.78 21.7521 141.471 21.985C141.168 22.2125 140.797 22.3263 140.358 22.3263C139.773 22.3263 139.313 22.1475 138.977 21.7901C138.647 21.4272 138.482 20.9316 138.482 20.3033C138.482 19.6804 138.642 19.1902 138.961 18.8327C139.281 18.4752 139.716 18.2965 140.269 18.2965C140.832 18.2965 141.273 18.4779 141.593 18.8408C141.912 19.1983 142.072 19.6695 142.072 20.2545V20.4982H139.172ZM139.188 19.9945H141.382C141.382 19.6749 141.276 19.4123 141.065 19.2064C140.854 18.9952 140.588 18.8896 140.269 18.8896C139.966 18.8896 139.719 18.9871 139.53 19.1821C139.345 19.3716 139.232 19.6425 139.188 19.9945Z" fill="#485867"/>
<path d="M146.109 19.6939L145.475 19.7995C145.389 19.507 145.251 19.2823 145.061 19.1252C144.877 18.9681 144.647 18.8896 144.371 18.8896C144.013 18.8896 143.734 19.0142 143.534 19.2633C143.334 19.507 143.233 19.8537 143.233 20.3033C143.233 20.7582 143.334 21.1103 143.534 21.3594C143.734 21.6032 144.013 21.7251 144.371 21.7251C144.663 21.7251 144.907 21.6384 145.102 21.4651C145.302 21.2917 145.432 21.0507 145.492 20.742L146.141 20.8476C146.049 21.3188 145.844 21.6844 145.524 21.9444C145.205 22.199 144.82 22.3263 144.371 22.3263C143.818 22.3263 143.377 22.1502 143.047 21.7982C142.716 21.4407 142.551 20.9424 142.551 20.3033C142.551 19.6695 142.716 19.1766 143.047 18.8246C143.377 18.4725 143.818 18.2965 144.371 18.2965C144.777 18.2965 145.134 18.4183 145.443 18.6621C145.752 18.9004 145.974 19.2443 146.109 19.6939Z" fill="#485867"/>
<path d="M149.31 19.8564C149.31 19.5693 149.223 19.3391 149.05 19.1658C148.882 18.9871 148.66 18.8977 148.384 18.8977C148.102 18.8977 147.869 18.9898 147.685 19.1739C147.501 19.3527 147.409 19.5856 147.409 19.8726H147.295C147.295 19.4231 147.422 19.0521 147.677 18.7596C147.931 18.4617 148.262 18.3127 148.668 18.3127C149.042 18.3127 149.356 18.4536 149.61 18.7352C149.87 19.0114 150 19.3554 150 19.767V22.1882H149.31V19.8564ZM147.409 18.4508L147.206 19.442L147.409 19.507V22.1882H146.735V16.6066H147.409V18.4508Z" fill="#485867"/>
<path d="M103.715 6.85706C104.662 6.85706 105.429 7.62457 105.429 8.57134V23.9999C104.482 23.9999 103.715 23.2324 103.715 22.2857V6.85706Z" fill="#9747FF"/>
<defs>
<clipPath id="clip0_2_378">
<rect width="93.3342" height="23.9761" fill="white"/>
</clipPath>
</defs>
</svg>
